<svg width="100" height="100" viewBox="0 0 100 100" fill="none" xmlns="http://www.w3.org/2000/svg">
<path d="M66.6667 71.5833L66.6667 28.4167C66.6667 25.125 63.0417 23.125 60.25 24.9166L26.3333 46.5C25.7395 46.8758 25.2504 47.3956 24.9115 48.0112C24.5726 48.6268 24.3949 49.3181 24.3949 50.0208C24.3949 50.7235 24.5726 51.4148 24.9115 52.0304C25.2504 52.646 25.7395 53.1659 26.3333 53.5417L60.25 75.0833C60.8785 75.4898 61.605 75.7191 62.3529 75.7471C63.1009 75.7751 63.8425 75.6007 64.4996 75.2422C65.1566 74.8838 65.7048 74.3547 66.0862 73.7108C66.4676 73.0668 66.6682 72.3318 66.6667 71.5833Z" fill="#FF3E00"/>
</svg>
