<svg width="145" height="121" viewBox="0 0 145 121" fill="none" xmlns="http://www.w3.org/2000/svg">
<path d="M9 20C9 16.134 12.134 13 16 13H102C105.866 13 109 16.134 109 20V106C109 109.866 105.866 113 102 113H16C12.134 113 9 109.866 9 106V20Z" fill="white"/>
<path d="M65.3841 98H46.7006L13 73.5468L39.8657 49.6119L57.2271 73.5468L109.119 12L133 34.6866L65.3841 98Z" fill="#0B409C"/>
<path d="M113 106V58.8938L135.734 37.6064L138.83 34.7076L135.755 31.7866L111.874 9.1L108.797 6.17669L106.061 9.42161L105.837 9.6877C104.642 9.24303 103.35 9 102 9H16C9.92487 9 5 13.9249 5 20V106C5 112.075 9.92487 117 16 117H102C108.075 117 113 112.075 113 106Z" stroke="white" stroke-width="8"/>
</svg>
