<svg width="100" height="100" viewBox="0 0 100 100" fill="none" xmlns="http://www.w3.org/2000/svg">
<path d="M0 8C0 3.58172 3.58172 0 8 0H92C96.4183 0 100 3.58172 100 8V92C100 96.4183 96.4183 100 92 100H8C3.58172 100 0 96.4183 0 92V8Z" fill="#0B409C"/>
<path d="M42.4328 28.9126C44.2165 27.653 46.7489 26.7722 49.6997 26.7722C56.7156 26.7722 59.8646 31.0971 59.8646 33.6252C59.8646 35.2019 58.9265 37.1617 56.4161 38.6988C56.3243 38.755 56.2341 38.8134 56.1456 38.8739L46.4186 44.6973C45.0402 45.5228 44.0265 46.8356 43.5741 48.3706C43.4967 48.6326 43.4357 48.9017 43.3922 49.1765C43.3374 49.5223 43.3114 49.8704 43.3136 50.2173V56.7957C43.3136 58.4894 43.9865 60.1137 45.1841 61.3113C46.3817 62.509 48.006 63.1818 49.6997 63.1818C51.3934 63.1818 53.0178 62.509 54.2154 61.3113C55.413 60.1137 56.0858 58.4894 56.0858 56.7957V53.7966L63.0401 49.6344C63.1897 49.545 63.3354 49.4496 63.4768 49.3486C68.6757 46.0142 72.6368 40.4568 72.6368 33.6252C72.6368 21.5312 60.9613 14 49.6997 14C44.2561 14 39.1208 15.6119 35.0689 18.4747C31.1756 21.2273 28.1015 25.2748 27.1017 30.2339C26.8047 31.8782 27.164 33.5735 28.1025 34.956C29.041 36.3385 30.484 37.298 32.1219 37.6288C33.7597 37.9596 35.462 37.6353 36.8635 36.7254C38.265 35.8156 39.2541 34.3926 39.6185 32.7619C39.8651 31.542 40.7151 30.1282 42.4328 28.9126Z" fill="#F2F7FF"/>
<path d="M56.0559 83.4201C57.7078 81.7682 58.6359 79.5277 58.6359 77.1916C58.6359 74.8554 57.7078 72.615 56.0559 70.9631C54.404 69.3112 52.1636 68.3832 49.8275 68.3832C47.4913 68.3832 45.2509 69.3112 43.599 70.9631C41.9471 72.615 41.019 74.8554 41.019 77.1916C41.019 79.5277 41.9471 81.7682 43.599 83.4201C45.2509 85.072 47.4913 86 49.8275 86C52.1636 86 54.404 85.072 56.0559 83.4201Z" fill="#F2F7FF"/>
</svg>
