<svg width="100" height="100" viewBox="0 0 100 100" fill="none" xmlns="http://www.w3.org/2000/svg">
<path fill-rule="evenodd" clip-rule="evenodd" d="M21.4303 0C15.7481 -4.18995e-07 10.2984 2.2567 6.27971 6.27389C2.26098 10.2911 0.00218212 15.7399 0 21.4221V78.5697C0 84.2533 2.25783 89.7042 6.2768 93.7232C10.2958 97.7422 15.7467 100 21.4303 100H78.5779C84.2601 99.9978 89.7089 97.739 93.7261 93.7203C97.7433 89.7016 100 84.2519 100 78.5697V21.4221C99.9978 15.7413 97.7401 10.2937 93.7232 6.2768C89.7062 2.25985 84.2587 0.00218116 78.5779 0H21.4303ZM84.742 21.455C84.742 23.092 84.0917 24.662 82.9342 25.8195C81.7766 26.9771 80.2067 27.6274 78.5697 27.6274C76.9327 27.6274 75.3627 26.9771 74.2052 25.8195C73.0476 24.662 72.3973 23.092 72.3973 21.455C72.3973 19.818 73.0476 18.2481 74.2052 17.0905C75.3627 15.933 76.9327 15.2827 78.5697 15.2827C80.2067 15.2827 81.7766 15.933 82.9342 17.0905C84.0917 18.2481 84.742 19.818 84.742 21.455ZM50.0123 32.878C45.4724 32.878 41.1184 34.6814 37.9081 37.8917C34.6979 41.1019 32.8944 45.4559 32.8944 49.9959C32.8944 54.5358 34.6979 58.8899 37.9081 62.1001C41.1184 65.3103 45.4724 67.1138 50.0123 67.1138C54.5523 67.1138 58.9063 65.3103 62.1166 62.1001C65.3268 58.8899 67.1303 54.5358 67.1303 49.9959C67.1303 45.4559 65.3268 41.1019 62.1166 37.8917C58.9063 34.6814 54.5523 32.878 50.0123 32.878ZM24.6564 49.9959C24.6564 43.2733 27.327 36.826 32.0806 32.0723C36.8342 27.3187 43.2815 24.6482 50.0041 24.6482C56.7267 24.6482 63.174 27.3187 67.9277 32.0723C72.6813 36.826 75.3518 43.2733 75.3518 49.9959C75.3518 56.7185 72.6813 63.1658 67.9277 67.9194C63.174 72.673 56.7267 75.3436 50.0041 75.3436C43.2815 75.3436 36.8342 72.673 32.0806 67.9194C27.327 63.1658 24.6564 56.7185 24.6564 49.9959Z" fill="#0B409C"/>
</svg>
